<svg width="24" height="24" viewBox="0 0 24 24" fill="none" xmlns="http://www.w3.org/2000/svg">
<path d="M20.1355 6.01749H17.3596C17.3596 5.06846 17.1342 4.19061 16.6834 3.38394C16.2326 2.57726 15.592 1.93667 14.7616 1.46216C13.9312 0.987642 13.0296 0.750385 12.0569 0.750385C11.0841 0.750385 10.1944 0.987642 9.38774 1.46216C8.58107 1.93667 7.94047 2.57726 7.46596 3.38394C6.99144 4.19061 6.75419 5.06846 6.75419 6.01749H4.04946C3.33769 6.01749 2.70895 6.29034 2.16326 6.83603C1.61757 7.38172 1.34473 8.01045 1.34473 8.72222V17.6194C1.34473 18.426 1.5464 19.1734 1.94973 19.8614C2.35307 20.5495 2.8869 21.0952 3.55122 21.4985C4.21554 21.9018 4.95103 22.1035 5.75771 22.1035H18.2849C19.0916 22.1035 19.827 21.9018 20.4914 21.4985C21.1557 21.0952 21.6895 20.5495 22.0929 19.8614C22.4962 19.1734 22.6979 18.426 22.6979 17.6194V8.72222C22.6979 8.01045 22.4369 7.38172 21.9149 6.83603C21.3929 6.29034 20.7998 6.01749 20.1355 6.01749ZM12.0925 2.60099C13.0889 2.60099 13.9312 2.94501 14.6193 3.63306C15.3073 4.3211 15.6513 5.16336 15.6513 6.15984H8.53361C8.53361 5.11591 8.87764 4.26179 9.56568 3.59747C10.2537 2.93315 11.096 2.60099 12.0925 2.60099ZM20.9896 17.6194C20.9896 18.3786 20.7168 19.0192 20.1711 19.5411C19.6254 20.0631 18.9966 20.3241 18.2849 20.3241H5.90006C5.18829 20.3241 4.55956 20.0631 4.01387 19.5411C3.46818 19.0192 3.19533 18.3786 3.19533 17.6194V8.72222C3.19533 8.48496 3.27837 8.28329 3.44445 8.11722C3.61053 7.95113 3.8122 7.8681 4.04946 7.8681H6.75419V9.64752C6.75419 9.88478 6.83723 10.0864 7.00331 10.2525C7.16939 10.4186 7.38292 10.5016 7.6439 10.5016C7.90488 10.5016 8.11841 10.4186 8.28449 10.2525C8.45057 10.0864 8.53361 9.88478 8.53361 9.64752V7.8681H15.6513V9.64752C15.6513 9.88478 15.7344 10.0864 15.9004 10.2525C16.0665 10.4186 16.2801 10.5016 16.541 10.5016C16.802 10.5016 17.0037 10.4186 17.146 10.2525C17.2884 10.0864 17.3596 9.88478 17.3596 9.64752V7.8681H20.1355C20.3727 7.8681 20.5744 7.95113 20.7405 8.11722C20.9066 8.28329 20.9896 8.48496 20.9896 8.72222V17.6194Z" fill="white"/>
</svg>
