<svg width="12" height="11" viewBox="0 0 12 11" fill="none" xmlns="http://www.w3.org/2000/svg">
<path d="M11.2485 0.25852C11.1714 0.181267 11.0798 0.119977 10.979 0.0781593C10.8782 0.0363414 10.7701 0.0148162 10.661 0.0148162C10.5518 0.0148162 10.4438 0.0363414 10.343 0.0781593C10.2421 0.119977 10.1506 0.181267 10.0735 0.25852L5.99848 4.32519L1.92348 0.250186C1.84633 0.173035 1.75473 0.111835 1.65393 0.0700804C1.55313 0.0283263 1.44509 0.00683594 1.33598 0.00683594C1.22687 0.00683594 1.11883 0.0283263 1.01802 0.0700804C0.917221 0.111835 0.825629 0.173035 0.748477 0.250186C0.671326 0.327338 0.610126 0.41893 0.568371 0.519733C0.526617 0.620537 0.505127 0.728578 0.505127 0.837687C0.505127 0.946795 0.526617 1.05484 0.568371 1.15564C0.610126 1.25644 0.671326 1.34803 0.748477 1.42519L4.82348 5.50019L0.748477 9.57518C0.671326 9.65234 0.610126 9.74393 0.568371 9.84473C0.526617 9.94554 0.505127 10.0536 0.505127 10.1627C0.505127 10.2718 0.526617 10.3798 0.568371 10.4806C0.610126 10.5814 0.671326 10.673 0.748477 10.7502C0.825629 10.8273 0.917221 10.8885 1.01802 10.9303C1.11883 10.972 1.22687 10.9935 1.33598 10.9935C1.44509 10.9935 1.55313 10.972 1.65393 10.9303C1.75473 10.8885 1.84633 10.8273 1.92348 10.7502L5.99848 6.67519L10.0735 10.7502C10.1506 10.8273 10.2422 10.8885 10.343 10.9303C10.4438 10.972 10.5519 10.9935 10.661 10.9935C10.7701 10.9935 10.8781 10.972 10.9789 10.9303C11.0797 10.8885 11.1713 10.8273 11.2485 10.7502C11.3256 10.673 11.3868 10.5814 11.4286 10.4806C11.4703 10.3798 11.4918 10.2718 11.4918 10.1627C11.4918 10.0536 11.4703 9.94554 11.4286 9.84473C11.3868 9.74393 11.3256 9.65234 11.2485 9.57518L7.17348 5.50019L11.2485 1.42519C11.5651 1.10852 11.5651 0.575186 11.2485 0.25852Z" fill="white"/>
</svg>
