<svg width="25" height="24" viewBox="0 0 25 24" fill="none" xmlns="http://www.w3.org/2000/svg">
<path d="M17.3542 2.625C15.4708 2.625 13.7992 3.36844 12.6667 4.64625C11.5342 3.36844 9.86269 2.625 7.97925 2.625C6.33883 2.62698 4.76617 3.27952 3.60622 4.43947C2.44627 5.59942 1.79373 7.17208 1.79175 8.8125C1.79175 15.5944 11.7114 21.0131 12.1333 21.2409C12.2973 21.3292 12.4805 21.3754 12.6667 21.3754C12.853 21.3754 13.0362 21.3292 13.2002 21.2409C13.6221 21.0131 23.5417 15.5944 23.5417 8.8125C23.5398 7.17208 22.8872 5.59942 21.7273 4.43947C20.5673 3.27952 18.9947 2.62698 17.3542 2.625ZM16.8396 15.9713C15.5339 17.0792 14.1381 18.0764 12.6667 18.9525C11.1954 18.0764 9.79962 17.0792 8.49394 15.9713C6.46237 14.2284 4.04175 11.5706 4.04175 8.8125C4.04175 7.76821 4.45659 6.76669 5.19501 6.02827C5.93344 5.28984 6.93496 4.875 7.97925 4.875C9.648 4.875 11.0449 5.75625 11.6252 7.17562C11.7096 7.38254 11.8538 7.55961 12.0393 7.68425C12.2248 7.80889 12.4433 7.87545 12.6667 7.87545C12.8902 7.87545 13.1087 7.80889 13.2942 7.68425C13.4797 7.55961 13.6238 7.38254 13.7083 7.17562C14.2886 5.75625 15.6855 4.875 17.3542 4.875C18.3985 4.875 19.4001 5.28984 20.1385 6.02827C20.8769 6.76669 21.2917 7.76821 21.2917 8.8125C21.2917 11.5706 18.8711 14.2284 16.8396 15.9713Z" fill="white"/>
</svg>
