<svg width="20" height="21" viewBox="0 0 20 21" fill="none" xmlns="http://www.w3.org/2000/svg">
<path fill-rule="evenodd" clip-rule="evenodd" d="M9.99944 18.1571L10.6004 17.4799C11.2823 16.699 11.8956 15.958 12.4413 15.2532L12.8918 14.659C14.7728 12.1247 15.7137 10.1132 15.7137 8.62657C15.7137 5.45324 13.1556 2.88086 9.99944 2.88086C6.84325 2.88086 4.28516 5.45324 4.28516 8.62657C4.28516 10.1132 5.22611 12.1247 7.10706 14.659L7.55754 15.2532C8.33605 16.2508 9.15056 17.2187 9.99944 18.1571Z" stroke="white" stroke-width="1.25" stroke-linecap="round" stroke-linejoin="round"/>
<path d="M10.0011 10.9758C11.316 10.9758 12.382 9.90978 12.382 8.59482C12.382 7.27986 11.316 6.21387 10.0011 6.21387C8.68611 6.21387 7.62012 7.27986 7.62012 8.59482C7.62012 9.90978 8.68611 10.9758 10.0011 10.9758Z" stroke="white" stroke-width="1.25" stroke-linecap="round" stroke-linejoin="round"/>
</svg>
