<svg width="24" height="25" viewBox="0 0 24 25" fill="none" xmlns="http://www.w3.org/2000/svg">
<path d="M10.2232 8.94741C10.2232 7.9608 11.0223 7.16169 12 7.16169C12.9777 7.16169 13.7768 7.9608 13.7768 8.94741C13.7768 9.92955 12.9777 10.7242 12 10.7242C11.0223 10.7242 10.2232 9.92508 10.2232 8.94741ZM22 4.61258V20.3269C22 21.5099 21.0402 22.4697 19.8571 22.4697H4.14286C2.95982 22.4697 2 21.5099 2 20.3269V4.61258C2 3.42955 2.95982 2.46973 4.14286 2.46973H19.8571C21.0402 2.46973 22 3.42955 22 4.61258ZM8.37946 8.94741C8.37946 10.9385 10.0045 12.559 12 12.559C13.9955 12.559 15.6205 10.9429 15.6205 8.94741C15.6205 6.94741 13.9955 5.32687 12 5.32687C10.0045 5.32687 8.37946 6.94294 8.37946 8.94741ZM16.1696 12.9965C15.9643 12.5903 15.3973 12.2465 14.6473 12.8358C14.6473 12.8358 13.6339 13.6394 12 13.6394C10.3661 13.6394 9.35268 12.8358 9.35268 12.8358C8.60268 12.2465 8.03571 12.5903 7.83036 12.9965C7.47768 13.7153 7.87946 14.0545 8.78571 14.6483C9.55804 15.1438 10.625 15.3269 11.3125 15.3983L10.7366 15.9742C9.92411 16.7778 9.15179 17.559 8.60714 18.1037C7.82143 18.8894 9.08482 20.1483 9.875 19.3804L12.0045 17.242C12.817 18.0545 13.5982 18.8358 14.1339 19.3804C14.9196 20.1483 16.1875 18.9028 15.4107 18.1037L13.2812 15.9742L12.7009 15.3983C13.3929 15.3269 14.4464 15.1349 15.2098 14.6483C16.1205 14.0545 16.5179 13.7108 16.1696 12.9965Z" fill="white" fill-opacity="0.8"/>
</svg>
