<svg width="14" height="13" viewBox="0 0 14 13" fill="none" xmlns="http://www.w3.org/2000/svg">
<path d="M1.24026 3.50326C1.78115 5.6136 2.87928 7.53978 4.41975 9.08025C5.96022 10.6207 7.8864 11.7188 9.99674 12.2597C11.6205 12.6731 13 11.2769 13 9.60079V8.84239C13 8.42375 12.6595 8.08778 12.2431 8.04607C11.5526 7.97801 10.8747 7.81493 10.2288 7.56145L9.07604 8.71422C7.19907 7.8145 5.6855 6.30093 4.78578 4.42396L5.93855 3.27119C5.68481 2.6253 5.52148 1.94746 5.45317 1.25688C5.41222 0.839763 5.07625 0.5 4.65761 0.5H3.89921C2.22315 0.5 0.826934 1.87953 1.24026 3.50326Z" stroke="white" stroke-linecap="round" stroke-linejoin="round"/>
</svg>
