<svg width="25" height="24" viewBox="0 0 25 24" fill="none" xmlns="http://www.w3.org/2000/svg">
<g clip-path="url(#clip0_4168_45529)">
<path fill-rule="evenodd" clip-rule="evenodd" d="M10.8333 2C9.47785 2.00012 8.14213 2.32436 6.93752 2.94569C5.73291 3.56702 4.69435 4.46742 3.9085 5.57175C3.12264 6.67609 2.61227 7.95235 2.41997 9.29404C2.22767 10.6357 2.35901 12.004 2.80304 13.2846C3.24707 14.5652 3.99091 15.7211 4.9725 16.6557C5.95409 17.5904 7.14497 18.2768 8.44578 18.6576C9.74658 19.0384 11.1196 19.1026 12.4503 18.8449C13.781 18.5872 15.0307 18.015 16.0953 17.176L19.7473 20.828C19.9359 21.0102 20.1885 21.111 20.4507 21.1087C20.7129 21.1064 20.9637 21.0012 21.1491 20.8158C21.3345 20.6304 21.4397 20.3796 21.4419 20.1174C21.4442 19.8552 21.3434 19.6026 21.1613 19.414L17.5093 15.762C18.4973 14.5086 19.1124 13.0024 19.2844 11.4157C19.4563 9.82905 19.1781 8.22602 18.4815 6.79009C17.7849 5.35417 16.6981 4.14336 15.3456 3.29623C13.993 2.44911 12.4292 1.99989 10.8333 2ZM4.33326 10.5C4.33326 8.77609 5.01808 7.12279 6.23707 5.90381C7.45605 4.68482 9.10935 4 10.8333 4C12.5572 4 14.2105 4.68482 15.4295 5.90381C16.6484 7.12279 17.3333 8.77609 17.3333 10.5C17.3333 12.2239 16.6484 13.8772 15.4295 15.0962C14.2105 16.3152 12.5572 17 10.8333 17C9.10935 17 7.45605 16.3152 6.23707 15.0962C5.01808 13.8772 4.33326 12.2239 4.33326 10.5Z" fill="white"/>
</g>
<defs>
<clipPath id="clip0_4168_45529">
<rect width="24" height="24" fill="white" transform="translate(0.333252)"/>
</clipPath>
</defs>
</svg>
