<svg width="24" height="25" viewBox="0 0 24 25" fill="none" xmlns="http://www.w3.org/2000/svg">
<path d="M9.6 16.4697L15.828 12.8697L9.6 9.26973V16.4697ZM23.472 7.07373C23.628 7.63773 23.736 8.39373 23.808 9.35373C23.892 10.3137 23.928 11.1417 23.928 11.8617L24 12.8697C24 15.4977 23.808 17.4297 23.472 18.6657C23.172 19.7457 22.476 20.4417 21.396 20.7417C20.832 20.8977 19.8 21.0057 18.216 21.0777C16.656 21.1617 15.228 21.1977 13.908 21.1977L12 21.2697C6.972 21.2697 3.84 21.0777 2.604 20.7417C1.524 20.4417 0.828 19.7457 0.528 18.6657C0.372 18.1017 0.264 17.3457 0.192 16.3857C0.108 15.4257 0.0719999 14.5977 0.0719999 13.8777L0 12.8697C0 10.2417 0.192 8.30973 0.528 7.07373C0.828 5.99373 1.524 5.29773 2.604 4.99773C3.168 4.84173 4.2 4.73373 5.784 4.66173C7.344 4.57773 8.772 4.54173 10.092 4.54173L12 4.46973C17.028 4.46973 20.16 4.66173 21.396 4.99773C22.476 5.29773 23.172 5.99373 23.472 7.07373Z" fill="white" fill-opacity="0.8"/>
</svg>
